<svg width="219" height="74" viewBox="0 0 219 74" fill="none" xmlns="http://www.w3.org/2000/svg">
<path d="M82.3908 1.2937L83.4539 1.55244L83.1881 34.6713L81.0619 36.4825L75.2148 40.3636L66.1784 46.5734L61.3944 49.9371L56.8762 53.042L52.0922 56.4056L48.3714 58.993L38.8034 65.7203L34.551 68.8252L31.6274 70.8951L28.9697 72.1888L25.2488 73.4825L22.0595 74H17.5413L14.3519 73.2238L10.0995 71.1538L6.91019 68.3077L5.04976 66.2378L3.18932 63.1329L1.86044 59.7692L0.531553 54.5944L0 50.4545V38.8112L0.79733 33.1189L2.39199 26.6503L4.5182 21.4755L7.17597 16.5594L9.83374 12.9371L13.0231 9.31468L14.6177 8.02097L15.415 8.27972L17.807 11.9021L19.1359 11.3846L20.9964 9.83216L20.7306 8.53846L19.1359 6.20978L19.4017 5.17482L21.7937 3.88111L23.3884 3.10489L24.4515 4.3986L25.7803 6.72727L25.2488 7.76223L22.8568 9.57342H22.3252L23.1226 11.3846L24.4515 13.4545L25.7803 12.9371L27.9066 11.6434H28.7039L30.8301 15.007L32.159 14.4895L34.8167 12.6783L35.8799 13.1958L37.7403 16.042V16.8182L34.551 18.8881L34.8167 19.9231L36.4114 22.5105L38.0061 21.993L39.8665 20.6993H40.9296L42.5243 23.028L42.7901 23.8042L44.1189 23.2867L47.3083 21.7343L49.4345 24.8392L51.2949 23.8042L53.6869 21.993L58.7367 18.3706L63.5206 15.007L67.7731 11.9021L72.8228 8.27972L77.341 4.91608L81.0619 2.06992L82.3908 1.2937ZM17.0097 13.972L14.6177 15.5245L14.8835 16.8182L16.2124 18.6294L17.807 18.3706L19.4017 17.0769L19.1359 15.7832L18.0728 13.972H17.0097ZM30.5643 15.7832L27.1092 17.8531L28.9697 20.6993L30.0328 21.4755L32.6905 19.9231L33.4879 19.4056L33.2221 18.1119L31.6274 16.042L30.5643 15.7832ZM28.9697 22.7692L26.5777 24.3217L26.8434 25.6154L28.4381 27.9441L29.5012 27.4266L31.6274 25.8741L31.8932 25.3566L30.5643 23.028L30.2985 22.7692H28.9697ZM42.7901 24.5804L39.8665 26.3916L39.6007 27.1678L41.4612 30.2727L43.0558 30.014L45.4478 28.2028L44.9163 26.3916L43.8532 24.8392L42.7901 24.5804Z" fill="#DE7E20"/>
<path d="M195.612 1.03496H204.914L205.18 26.1329L95.6796 26.3916L95.4138 26.1329L95.6796 19.1468L97.0085 18.8881H108.703L118.536 18.6294L118.271 13.4545H95.4138L95.6796 7.50349L97.0085 6.20978H118.802L124.649 6.46852L125.978 7.24475L127.307 8.7972L127.573 10.0909L127.839 18.6294L143.785 18.8881L143.519 6.20978H153.087V19.1468L157.871 18.8881L179.399 18.6294V13.4545H162.655V7.24475L163.453 6.20978H180.994L185.778 6.46852L187.373 7.50349L188.436 9.05594L188.701 10.3496L188.967 17.8531L189.233 19.1468L191.625 19.9231L194.283 19.6643L195.346 18.6294L195.612 17.3357V1.03496Z" fill="#4A4443"/>
<path d="M209.964 37.7762H219V64.4266H210.761L210.229 63.6503L208.901 63.9091L207.306 64.6853L205.977 64.9441H203.319L200.396 64.1678L198.801 63.1329L196.941 61.3217L195.878 59.2517L195.346 57.4406V52.2657L196.409 49.4196L198.004 46.8322L199.864 45.2797L202.522 44.2448L203.851 43.986H209.964V37.7762ZM208.635 49.6783L206.243 50.1958L204.648 51.4895L203.851 53.3007V56.1469L204.914 57.6993L206.774 58.4755L208.635 57.6993L209.698 56.1469L209.964 55.1119L210.229 50.7133L209.964 49.6783H208.635Z" fill="#4C4645"/>
<path d="M104.716 43.986H111.626L114.284 44.7622L115.879 45.7972L116.942 47.0909L117.473 48.9021V64.4266H108.703L108.437 63.3916V60.8042L107.64 64.1678L107.374 64.6853L105.779 64.9441H102.324L99.1348 64.1678L97.5401 63.1329L96.2112 61.3217L95.6797 59.5105V56.9231L96.7428 54.8531L98.6032 53.3007L101.793 52.007L106.842 50.972L108.171 50.1958L108.437 49.1608L104.45 49.4196L98.869 50.972L97.8059 50.7133L98.3375 45.021L98.6032 44.7622L104.716 43.986ZM108.171 56.4056L104.716 57.6993L104.185 58.2168L104.45 59.5105L104.716 59.7692H106.842L108.703 58.993L108.969 58.7343V56.4056H108.171Z" fill="#4A4443"/>
<path d="M134.483 37.2587H143.785V43.4685H135.015V43.986H143.785V55.3706L144.051 68.5664L143.519 70.3776L141.659 72.4476L139.799 73.2238L138.204 73.4825H134.217L129.433 72.965L128.902 71.4126L128.37 67.014V65.7203L129.699 65.979L130.496 66.2378H133.42L134.483 65.4615L134.749 64.4266V50.972L134.483 43.4685V37.2587Z" fill="#4A4443"/>
<path d="M154.682 43.986H161.592L165.047 45.021L167.174 46.8322L169.034 50.1958L169.3 51.4895V55.6294L168.768 55.8881L155.745 55.6294L156.808 57.6993L158.403 58.4755H162.655L166.908 57.4406H167.971L167.439 62.6154L167.174 64.1678L164.25 64.6853L162.124 64.9441H157.606L153.353 64.1678L151.227 63.1329L149.632 61.8392L148.038 59.5105L147.24 56.6643L146.975 53.5594L147.772 49.9371L149.101 47.3497L150.961 45.5385L153.619 44.2448L154.682 43.986ZM157.871 49.4196L156.277 50.1958L155.745 51.7483H160.795L160.529 50.1958L159.998 49.6783L157.871 49.4196Z" fill="#4C4645"/>
<path d="M179.134 43.986H185.512L188.436 44.7622L190.03 45.7972L191.891 47.6084L192.954 49.6783L193.485 52.7832L193.22 55.6294H179.665L180.994 57.6993L182.323 58.4755L184.715 58.7343L187.904 58.2168L191.094 57.4406H191.891V59.7692L191.359 63.9091L190.296 64.4266L186.044 64.9441H181.526L178.336 64.4266L175.678 63.3916L173.286 61.3217L171.958 58.7343L171.426 56.9231V51.4895L172.489 48.6434L174.084 46.5734L175.944 45.021L177.805 44.2448L179.134 43.986ZM181.791 49.4196L180.728 49.9371L180.197 51.4895L181.791 51.7483H184.715L184.981 50.7133L183.652 49.4196H181.791Z" fill="#4A4544"/>
<path d="M208.635 0.77623H218.734L219 26.1329H208.635V0.77623Z" fill="#4A4444"/>
<path d="M121.726 37.5175L130.231 37.7762L130.496 38.035V64.4266L129.433 64.6853L121.46 64.4266L121.726 56.1469V47.3497L121.46 37.7762L121.726 37.5175Z" fill="#4A4443"/>
<path d="M172.755 27.6853H178.868L179.133 27.9441V33.6364L178.868 33.8951L169.831 34.1538L169.565 33.8951V28.2028L169.831 27.9441L172.755 27.6853Z" fill="#544F4E"/>
<path d="M146.443 27.6853H155.745V33.8951H146.443V27.6853Z" fill="#514C4B"/>
<path d="M142.19 27.6853H143.519L143.785 27.9441L144.051 31.3077V33.8951L134.483 34.1538V28.2028L134.749 27.9441L142.19 27.6853Z" fill="#4E4948"/>
<path d="M40.1324 6.20979L41.4613 6.46853L43.0559 8.79721L43.3217 9.57343L40.6639 11.3846L39.335 11.6434L37.4746 9.05595V7.76224L40.1324 6.20979Z" fill="#828183"/>
<path d="M44.9162 13.4545L46.2451 13.7133L47.8398 16.042L47.574 17.3357L45.182 18.6294L43.8531 18.3706L41.9927 16.042L42.5242 15.007L44.9162 13.4545Z" fill="#828083"/>
<path d="M31.6275 2.58742L32.6906 2.84616L34.2853 4.91609L34.551 6.2098L31.6275 8.02098L30.5644 7.5035L28.9697 4.91609L30.2986 3.62238L31.6275 2.58742Z" fill="#8A888B"/>
<path d="M38.2718 0L39.6007 0.258741L40.9296 2.32867L40.6638 3.36364L38.5376 4.3986L37.4745 4.13986L36.4114 2.58741L36.6772 1.29371L38.2718 0Z" fill="#929092"/>
<path d="M47.3082 6.46854H48.3713L49.7002 8.53847L49.4344 9.83217L48.3713 10.6084L46.7766 10.8671L45.4478 9.05595L45.7135 7.76224L47.3082 6.46854Z" fill="#8F8D8F"/>
</svg>
